<?xml version="1.0" standalone="no"?>
<!DOCTYPE svg PUBLIC "-//W3C//DTD SVG 20010904//EN"
 "http://www.w3.org/TR/2001/REC-SVG-20010904/DTD/svg10.dtd">
<svg version="1.0" xmlns="http://www.w3.org/2000/svg"
 width="512.000000pt" height="512.000000pt" viewBox="0 0 512.000000 512.000000"
 preserveAspectRatio="xMidYMid meet">

<g transform="translate(0.000000,512.000000) scale(0.100000,-0.100000)"
fill="#ffffff" stroke="none">
<path d="M2405 4891 c-77 -28 -155 -70 -216 -116 -84 -66 -208 -201 -277 -306
-82 -122 -198 -359 -260 -529 -66 -181 -68 -188 -40 -195 45 -9 497 -34 683
-37 l190 -3 0 600 c0 674 8 617 -80 586z"/>
<path d="M2637 4903 c-10 -9 -8 -1176 2 -1191 7 -11 57 -12 287 -3 279 11 539
27 582 37 28 6 26 13 -40 194 -62 171 -178 407 -260 530 -69 103 -205 252
-283 310 -60 45 -139 86 -214 111 -60 21 -65 22 -74 12z"/>
<path d="M1911 4824 c-376 -111 -697 -297 -978 -568 -113 -108 -292 -319 -293
-343 0 -7 10 -15 23 -18 137 -31 215 -47 342 -69 218 -38 425 -64 431 -55 2 4
27 72 53 151 123 359 284 644 482 853 83 87 79 90 -60 49z"/>
<path d="M3147 4777 c197 -209 357 -490 482 -852 l56 -160 35 3 c123 11 529
78 650 107 30 7 67 16 83 19 15 4 27 12 27 19 -1 24 -179 233 -291 342 -260
252 -569 437 -915 549 -62 19 -131 38 -155 42 l-44 7 72 -76z"/>
<path d="M506 3707 c-103 -185 -195 -428 -240 -637 -27 -127 -56 -330 -56
-397 l0 -43 523 0 c287 0 527 4 533 8 7 4 13 69 17 167 9 226 48 520 96 728
l19 78 -22 8 c-11 5 -52 12 -91 16 -113 11 -467 73 -608 105 -72 16 -132 30
-133 30 -2 0 -19 -28 -38 -63z"/>
<path d="M4435 3739 c-131 -31 -488 -94 -600 -105 -38 -4 -79 -10 -91 -15
l-21 -7 18 -84 c54 -244 99 -607 99 -794 0 -74 3 -93 16 -98 9 -3 249 -6 535
-6 l519 0 0 43 c0 145 -59 444 -128 652 -52 155 -188 439 -212 441 -8 1 -69
-11 -135 -27z"/>
<path d="M1548 3594 c-12 -20 -58 -247 -77 -379 -26 -178 -40 -330 -43 -470
l-3 -110 530 0 530 0 3 453 2 452 -26 10 c-14 6 -89 10 -167 10 -131 0 -489
19 -669 36 -41 3 -78 3 -80 -2z"/>
<path d="M3405 3590 c-141 -14 -457 -30 -592 -30 -73 0 -143 -4 -157 -10 l-26
-10 2 -452 3 -453 524 -3 c296 -1 529 2 534 7 22 22 -29 534 -78 774 -40 193
-34 182 -86 183 -24 1 -80 -2 -124 -6z"/>
<path d="M210 2447 c0 -144 58 -444 126 -647 40 -121 160 -386 196 -433 12
-16 20 -16 144 13 142 32 495 94 609 105 39 4 79 11 91 16 l21 7 -18 84 c-52
233 -99 608 -99 794 0 74 -3 93 -16 98 -9 3 -249 6 -535 6 l-519 0 0 -43z"/>
<path d="M1424 2476 c-7 -19 13 -320 32 -466 17 -134 47 -303 72 -410 l18 -75
59 1 c33 1 173 9 312 18 138 9 313 16 387 16 74 0 146 4 160 10 l26 10 -2 452
-3 453 -528 3 c-453 2 -528 0 -533 -12z"/>
<path d="M2637 2483 c-4 -3 -7 -208 -7 -455 l0 -448 26 -10 c14 -6 87 -10 162
-10 145 0 391 -13 610 -31 75 -6 137 -8 142 -3 13 14 67 286 89 450 23 170 45
489 36 504 -7 11 -1047 15 -1058 3z"/>
<path d="M3853 2483 c-9 -3 -13 -33 -13 -97 0 -186 -47 -561 -98 -794 -11 -45
-15 -85 -10 -88 5 -3 59 -12 121 -20 167 -22 444 -70 591 -104 124 -29 132
-29 144 -13 36 47 156 312 196 433 68 203 126 503 126 647 l0 43 -522 -1
c-288 0 -529 -3 -535 -6z"/>
<path d="M2140 1410 c-227 -9 -526 -31 -540 -40 -7 -4 -1 -36 19 -98 72 -218
185 -458 297 -629 70 -106 255 -294 336 -342 71 -41 171 -82 206 -84 l27 -2 3
580 c1 319 0 590 -3 603 -6 25 -8 25 -345 12z"/>
<path d="M2636 1404 c-11 -28 -7 -1182 4 -1189 14 -8 100 20 175 58 180 90
370 306 512 583 97 189 214 501 193 514 -15 9 -296 29 -565 40 -307 13 -312
13 -319 -6z"/>
<path d="M1325 1343 c-356 -48 -685 -112 -685 -134 0 -19 132 -181 230 -283
277 -287 606 -492 981 -610 63 -20 132 -39 154 -43 l40 -6 -74 79 c-206 220
-369 512 -490 876 -24 70 -46 129 -49 131 -4 2 -52 -2 -107 -10z"/>
<path d="M3684 1349 c-2 -4 -27 -72 -53 -151 -120 -350 -285 -643 -479 -849
l-77 -82 44 7 c24 3 93 23 155 43 377 121 700 323 976 609 98 102 230 264 230
283 0 5 -17 15 -37 20 -83 22 -347 71 -513 95 -240 34 -240 34 -246 25z"/>
</g>
</svg>
