<?xml version="1.0" standalone="no"?>
<!DOCTYPE svg PUBLIC "-//W3C//DTD SVG 20010904//EN"
 "http://www.w3.org/TR/2001/REC-SVG-20010904/DTD/svg10.dtd">
<svg version="1.0" xmlns="http://www.w3.org/2000/svg"
 width="512.000000pt" height="512.000000pt" viewBox="0 0 512.000000 512.000000"
 preserveAspectRatio="xMidYMid meet">

<g transform="translate(0.000000,512.000000) scale(0.100000,-0.100000)"
fill="#000000" stroke="none">
<path d="M2430 4865 c-657 -112 -1180 -611 -1309 -1250 -34 -168 -44 -316 -31
-446 22 -227 74 -417 160 -589 43 -86 254 -458 558 -985 64 -110 132 -229 152
-265 20 -36 81 -141 135 -235 54 -93 115 -199 135 -235 135 -240 305 -529 323
-549 28 -30 94 -61 132 -61 45 0 109 34 137 71 14 19 88 144 165 279 78 135
191 333 253 440 452 785 828 1447 869 1529 115 230 171 464 171 713 0 703
-453 1319 -1130 1532 -144 46 -295 66 -480 65 -91 -1 -199 -7 -240 -14z m432
-1024 c249 -64 448 -265 515 -521 23 -88 22 -254 -1 -340 -67 -245 -251 -436
-496 -511 -107 -33 -283 -34 -388 -1 -103 32 -166 64 -244 123 -166 124 -278
350 -278 560 0 272 174 543 418 652 135 59 328 75 474 38z"/>
</g>
</svg>