<?xml version="1.0" standalone="no"?>
<!DOCTYPE svg PUBLIC "-//W3C//DTD SVG 20010904//EN"
 "http://www.w3.org/TR/2001/REC-SVG-20010904/DTD/svg10.dtd">
<svg version="1.0" xmlns="http://www.w3.org/2000/svg"
 width="512.000000pt" height="512.000000pt" viewBox="0 0 512.000000 512.000000"
 preserveAspectRatio="xMidYMid meet">

<g transform="translate(0.000000,512.000000) scale(0.100000,-0.100000)"
fill="#ffffff" stroke="none">
<path d="M815 4686 c-136 -70 -320 -223 -418 -346 -33 -41 -63 -77 -67 -80
-19 -13 -60 -114 -71 -174 -17 -103 -7 -460 19 -631 33 -216 44 -278 52 -300
4 -11 20 -67 35 -125 52 -198 125 -415 180 -535 75 -164 142 -304 161 -335 11
-19 36 -62 54 -95 68 -126 243 -381 335 -490 177 -209 291 -328 441 -460 50
-44 109 -95 130 -114 87 -77 391 -284 489 -333 28 -13 78 -41 113 -61 34 -20
62 -34 62 -32 0 3 44 -18 98 -45 55 -28 103 -50 108 -50 5 0 54 -18 109 -40
55 -23 125 -47 155 -55 30 -7 87 -23 125 -35 194 -60 457 -99 660 -100 125 0
133 2 210 34 211 87 525 379 570 529 32 107 14 236 -55 387 -53 118 -96 161
-227 228 -175 88 -546 221 -730 262 -93 20 -144 18 -215 -9 -39 -15 -194 -132
-327 -246 l-114 -99 -65 34 c-123 64 -359 235 -492 356 -85 77 -346 338 -401
399 -52 59 -118 147 -192 260 -37 55 -70 105 -75 110 -28 35 -104 173 -153
275 -107 223 -109 232 -79 253 32 23 208 184 273 252 32 33 77 86 99 119 58
85 60 128 13 386 -67 368 -137 609 -213 732 -27 43 -134 116 -248 169 -76 36
-101 42 -174 46 l-85 5 -90 -46z"/>
</g>
</svg>
