<?xml version="1.0" standalone="no"?>
<!DOCTYPE svg PUBLIC "-//W3C//DTD SVG 20010904//EN"
 "http://www.w3.org/TR/2001/REC-SVG-20010904/DTD/svg10.dtd">
<svg version="1.0" xmlns="http://www.w3.org/2000/svg"
 width="512.000000pt" height="512.000000pt" viewBox="0 0 512.000000 512.000000"
 preserveAspectRatio="xMidYMid meet">

<g transform="translate(0.000000,512.000000) scale(0.100000,-0.100000)"
fill="#ffffff" stroke="none">
<path d="M521 3645 c-54 -25 -54 -26 -35 -44 10 -10 479 -401 1041 -869 l1022
-851 1033 860 c568 474 1037 865 1042 870 6 5 -13 19 -45 34 l-54 25 -1975 0
-1975 0 -54 -25z"/>
<path d="M372 2113 c3 -1072 5 -1192 19 -1224 23 -51 75 -107 123 -132 l41
-22 1974 -3 c1339 -1 1986 1 2012 8 60 16 121 68 152 130 l27 55 -2 1188 -3
1188 -1083 -902 -1083 -901 -42 35 c-23 19 -510 424 -1082 901 -571 476 -1043
866 -1047 866 -5 0 -7 -534 -6 -1187z"/>
</g>
</svg>
